<svg xmlns="http://www.w3.org/2000/svg" width="50" height="50" viewBox="0 0 50 50"><defs><style>.a{fill:#ffcc32;}</style></defs><g transform="translate(-549 -2042)"><circle class="a" cx="25" cy="25" r="25" transform="translate(549 2042)"/><g transform="translate(560 2053)"><path d="M18.376,26.251a3.5,3.5,0,1,1,3.5-3.5A3.5,3.5,0,0,1,18.376,26.251Zm0-5.25a1.75,1.75,0,1,0,1.75,1.75A1.752,1.752,0,0,0,18.376,21Zm-10.5,5.25a3.5,3.5,0,1,1,3.5-3.5A3.5,3.5,0,0,1,7.876,26.251Zm0-5.25a1.75,1.75,0,1,0,1.75,1.75A1.752,1.752,0,0,0,7.876,21Zm14.874-4.375a3.5,3.5,0,1,1,3.5-3.5A3.5,3.5,0,0,1,22.751,16.626Zm0-5.25a1.75,1.75,0,1,0,1.75,1.75A1.752,1.752,0,0,0,22.751,11.375Zm-9.625,5.25a3.5,3.5,0,1,1,3.5-3.5A3.5,3.5,0,0,1,13.125,16.626Zm0-5.25a1.75,1.75,0,1,0,1.75,1.75A1.752,1.752,0,0,0,13.125,11.375ZM3.5,16.626a3.5,3.5,0,1,1,3.5-3.5A3.5,3.5,0,0,1,3.5,16.626Zm0-5.25a1.75,1.75,0,1,0,1.75,1.75A1.752,1.752,0,0,0,3.5,11.375ZM18.376,7a3.5,3.5,0,1,1,3.5-3.5A3.5,3.5,0,0,1,18.376,7Zm0-5.25a1.75,1.75,0,1,0,1.75,1.75A1.752,1.752,0,0,0,18.376,1.75ZM7.876,7a3.5,3.5,0,1,1,3.5-3.5A3.5,3.5,0,0,1,7.876,7Zm0-5.25A1.75,1.75,0,1,0,9.626,3.5,1.752,1.752,0,0,0,7.876,1.75Z" transform="translate(0.874 0.874)"/></g></g></svg>