<svg xmlns="http://www.w3.org/2000/svg" width="50" height="50" viewBox="0 0 50 50"><defs><style>.a{fill:#ffcc32;}</style></defs><g transform="translate(-971 -2042)"><circle class="a" cx="25" cy="25" r="25" transform="translate(971 2042)"/><g transform="translate(982 2053)"><path d="M8.749,24.5h0L7,24.5v-1.75a4.388,4.388,0,0,1,4.375-4.375h3.5a4.388,4.388,0,0,1,4.375,4.375V24.5l-1.75,0v-1.75a2.633,2.633,0,0,0-2.626-2.626h-3.5a2.633,2.633,0,0,0-2.626,2.626V24.5Zm17.5-6.127H24.5v-3.5a2.633,2.633,0,0,0-2.626-2.626h-1.75V10.5h1.75a4.388,4.388,0,0,1,4.375,4.375v3.5Zm-24.5,0H0v-3.5A4.386,4.386,0,0,1,4.374,10.5h1.75v1.75H4.374A2.632,2.632,0,0,0,1.75,14.876v3.5Zm11.375-1.75A4.375,4.375,0,1,1,17.5,12.25,4.38,4.38,0,0,1,13.124,16.626Zm0-7a2.625,2.625,0,1,0,2.624,2.626A2.628,2.628,0,0,0,13.124,9.625Zm7-.874A4.375,4.375,0,1,1,24.5,4.375,4.38,4.38,0,0,1,20.125,8.751Zm0-7a2.625,2.625,0,1,0,2.624,2.626A2.628,2.628,0,0,0,20.125,1.75Zm-14,7A4.375,4.375,0,1,1,10.5,4.375,4.38,4.38,0,0,1,6.125,8.751Zm0-7A2.625,2.625,0,1,0,8.749,4.375,2.628,2.628,0,0,0,6.125,1.75Z" transform="translate(0.876 1.75)"/></g></g></svg>