<svg xmlns="http://www.w3.org/2000/svg" width="50" height="50" viewBox="0 0 50 50"><defs><style>.a{fill:#ffcc32;}</style></defs><g transform="translate(-127 -2042)"><circle class="a" cx="25" cy="25" r="25" transform="translate(127 2042)"/><g transform="translate(138 2053)"><path d="M17.5,24.5h-7a1.754,1.754,0,0,1-1.75-1.75V17.5a1.756,1.756,0,0,1,1.75-1.75V13.124a3.5,3.5,0,0,1,7,0V15.75a1.757,1.757,0,0,1,1.75,1.75v5.249A1.754,1.754,0,0,1,17.5,24.5Zm-7-7v5.249h7V17.5ZM14,11.375a1.752,1.752,0,0,0-1.75,1.75V15.75h3.5V13.124A1.752,1.752,0,0,0,14,11.375ZM7,20.127H7l-.442,0A6.564,6.564,0,0,1,5.4,7.1a8.759,8.759,0,0,1,17.2,0,6.564,6.564,0,0,1-1.156,13.024H21v-1.75h.444a4.814,4.814,0,0,0,.846-9.552l-1.181-.214-.227-1.177a7.009,7.009,0,0,0-13.764,0L6.892,8.609l-1.18.214a4.814,4.814,0,0,0,.847,9.552H7v1.752Z" transform="translate(-0.001 1.75)"/></g></g></svg>