<svg width="50" height="50" viewBox="0 0 50 50" fill="none" xmlns="http://www.w3.org/2000/svg">
<path fill-rule="evenodd" clip-rule="evenodd" d="M37.4703 38.177C38.423 38.7507 39.5129 39.0566 40.625 39.0625C44.0752 39.0586 46.8711 36.2627 46.875 32.8125C46.8678 32.2719 46.7894 31.7345 46.6419 31.2144L42.8345 35.022L42.8338 35.0212C42.0446 35.8104 40.8945 36.1185 39.8165 35.8297C38.7386 35.5409 37.8966 34.6989 37.6078 33.621C37.319 32.543 37.6271 31.3929 38.4162 30.6038L38.4155 30.603L42.223 26.7955C41.7028 26.6482 41.1656 26.5698 40.625 26.5625C37.1748 26.5664 34.3789 29.3623 34.375 32.8125C34.3809 33.9247 34.687 35.0146 35.2608 35.9673L26.5625 44.6656L28.772 46.875L37.4703 38.177ZM40.625 6.25H34.375V3.125H31.25V6.25H18.75V3.125H15.625V6.25H9.375C7.64911 6.25 6.25 7.64911 6.25 9.375V40.625C6.25 42.3509 7.64911 43.75 9.375 43.75H21.875V40.625H9.375V9.375H15.625V12.5H18.75V9.375H31.25V12.5H34.375V9.375H40.625V21.875H43.75V9.375C43.75 7.64911 42.3509 6.25 40.625 6.25Z" fill="black"/>
</svg>
