<?xml version="1.0" encoding="UTF-8"?>
<svg width="18px" height="18px" viewBox="0 0 18 18" version="1.1" xmlns="http://www.w3.org/2000/svg" xmlns:xlink="http://www.w3.org/1999/xlink">
    <title>Actions / Operations / compare / 20 Copy 2</title>
    <g id="Page-1" stroke="none" stroke-width="1" fill="none" fill-rule="evenodd">
        <g id="Website---Home-Hover-Menu" transform="translate(-358.000000, -351.000000)" fill="#8E8E8E">
            <g id="Group-2" transform="translate(135.000000, 183.000000)">
                <g id="Actions-/-Operations-/-compare-/-20-Copy-2" transform="translate(222.000000, 167.000000)">
                    <path d="M17.5,3.75 L11.25,3.75 L11.25,2.5 C11.25,1.80964406 10.6903559,1.25 10,1.25 L2.5,1.25 C1.80964406,1.25 1.25,1.80964406 1.25,2.5 L1.25,15 C1.25,15.6903559 1.80964406,16.25 2.5,16.25 L8.75,16.25 L8.75,17.5 C8.75,18.1903559 9.30964406,18.75 10,18.75 L17.5,18.75 C18.1903559,18.75 18.75,18.1903559 18.75,17.5 L18.75,5 C18.75,4.30964406 18.1903559,3.75 17.5,3.75 Z M2.5,9.375 L6.35625,9.375 L4.74375,10.99375 L5.625,11.875 L8.75,8.75 L5.625,5.625 L4.74375,6.50625 L6.35625,8.125 L2.5,8.125 L2.5,2.5 L10,2.5 L10,15 L2.5,15 L2.5,9.375 Z M10,17.5 L10,16.25 C10.6903559,16.25 11.25,15.6903559 11.25,15 L11.25,5 L17.5,5 L17.5,10.625 L13.64375,10.625 L15.25625,9.00625 L14.375,8.125 L11.25,11.25 L14.375,14.375 L15.25625,13.49375 L13.64375,11.875 L17.5,11.875 L17.5,17.5 L10,17.5 Z" id="Fill"></path>
                </g>
            </g>
        </g>
    </g>
</svg>