<?xml version="1.0" encoding="UTF-8"?>
<svg width="15px" height="18px" viewBox="0 0 15 18" version="1.1" xmlns="http://www.w3.org/2000/svg" xmlns:xlink="http://www.w3.org/1999/xlink">
    <title>Organization / Data / report--data / 20 Copy 2</title>
    <g id="Page-1" stroke="none" stroke-width="1" fill="none" fill-rule="evenodd">
        <g id="Website---Home-Hover-Menu" transform="translate(-655.000000, -267.000000)" fill="#8E8E8E">
            <g id="Group-3" transform="translate(642.000000, 223.000000)">
                <g id="Organization-/-Data-/-report--data-/-20-Copy-2" transform="translate(10.500000, 43.000000)">
                    <path d="M9.375,12.5 L10.625,12.5 L10.625,15 L9.375,15 L9.375,12.5 Z M12.5,11.25 L13.75,11.25 L13.75,15 L12.5,15 L12.5,11.25 Z M6.25,8.75 L7.5,8.75 L7.5,15 L6.25,15 L6.25,8.75 Z M15.625,3.125 L13.75,3.125 L13.75,2.5 C13.75,1.80964406 13.1903559,1.25 12.5,1.25 L7.5,1.25 C6.80964406,1.25 6.25,1.80964406 6.25,2.5 L6.25,3.125 L4.375,3.125 C3.68464406,3.125 3.125,3.68464406 3.125,4.375 L3.125,17.5 C3.125,18.1903559 3.68464406,18.75 4.375,18.75 L15.625,18.75 C16.3153559,18.75 16.875,18.1903559 16.875,17.5 L16.875,4.375 C16.875,3.68464406 16.3153559,3.125 15.625,3.125 Z M7.5,2.5 L12.5,2.5 L12.5,5 L7.5,5 L7.5,2.5 Z M15.625,17.5 L4.375,17.5 L4.375,4.375 L6.25,4.375 L6.25,6.25 L13.75,6.25 L13.75,4.375 L15.625,4.375 L15.625,17.5 Z" id="Fill"></path>
                </g>
            </g>
        </g>
    </g>
</svg>