<svg width="50" height="50" viewBox="0 0 50 50" fill="none" xmlns="http://www.w3.org/2000/svg">
<path fill-rule="evenodd" clip-rule="evenodd" d="M43.75 3.125H6.25C4.52482 3.12672 3.12672 4.52482 3.125 6.25V43.75C3.12698 45.4751 4.52493 46.873 6.25 46.875H43.75C45.4749 46.8727 46.8727 45.4749 46.875 43.75V6.25C46.873 4.52493 45.4751 3.12698 43.75 3.125ZM43.75 17.1875H21.875V6.25H43.75V17.1875ZM18.75 17.1875V6.25H6.25V17.1875H18.75ZM6.25 43.75V20.3125H43.7511L43.7531 43.75H6.25ZM17.1875 40.625C12.8749 40.6199 9.38008 37.1251 9.375 32.8125H12.5C12.5 35.4013 14.5987 37.5 17.1875 37.5C19.7763 37.5 21.875 35.4013 21.875 32.8125C21.875 30.2237 19.7763 28.125 17.1875 28.125V25C21.5022 25 25 28.4978 25 32.8125C25 37.1272 21.5022 40.625 17.1875 40.625ZM34.375 25H31.25V40.625H34.375V25ZM40.625 32.8125H37.5V40.625H40.625V32.8125Z" fill="black"/>
</svg>
