<?xml version="1.0" encoding="UTF-8"?>
<svg width="19px" height="16px" viewBox="0 0 19 16" version="1.1" xmlns="http://www.w3.org/2000/svg" xmlns:xlink="http://www.w3.org/1999/xlink">
    <title>Organization / File / folder / 20</title>
    <g id="Page-1" stroke="none" stroke-width="1" fill="none" fill-rule="evenodd">
        <g id="Website---Home-Hover-Menu" transform="translate(-145.000000, -310.000000)" fill="#8E8E8E">
            <g id="Group-2" transform="translate(135.000000, 183.000000)">
                <g id="Organization-/-File-/-folder-/-20" transform="translate(9.500000, 125.000000)">
                    <path d="M6.98125,3.75 L9.11875,5.88125 L9.48125,6.25 L17.5,6.25 L17.5,16.25 L2.5,16.25 L2.5,3.75 L6.98125,3.75 M6.98125,2.49999961 L2.5,2.49999961 C1.80964406,2.49999961 1.25,3.05964406 1.25,3.75 L1.25,16.25 C1.25,16.9403559 1.80964406,17.4999996 2.5,17.4999996 L17.5,17.4999996 C18.1903559,17.4999996 18.75,16.9403559 18.75,16.25 L18.75,6.25 C18.75,5.55964406 18.1903559,4.99999961 17.5,4.99999961 L10,4.99999961 L7.86875,2.86875 C7.63387726,2.63247538 7.31440287,2.49973601 6.98125,2.49999961 Z" id="Fill"></path>
                </g>
            </g>
        </g>
    </g>
</svg>