<?xml version="1.0" encoding="UTF-8"?>
<svg width="18px" height="18px" viewBox="0 0 18 18" version="1.1" xmlns="http://www.w3.org/2000/svg" xmlns:xlink="http://www.w3.org/1999/xlink">
    <title>Fill 1</title>
    <g id="Page-1" stroke="none" stroke-width="1" fill="none" fill-rule="evenodd">
        <g id="Website---Home-Hover-Menu" transform="translate(-146.000000, -351.000000)" fill="#8E8E8E">
            <g id="Group-2" transform="translate(135.000000, 183.000000)">
                <path d="M22.0204082,184.163265 L23.8571429,184.163265 L23.8571429,179.387755 L22.0204082,179.387755 L22.0204082,184.163265 Z M12.4693878,179.020408 C13.6365298,178.948499 14.5695059,178.681144 15.2683161,178.220188 C15.9671263,177.759231 16.4815539,177.139705 16.8134426,176.361611 C16.9572611,176.031566 17.0605153,175.692302 17.1268931,175.347506 C17.191427,175.000867 17.2301473,174.668978 17.244898,174.353684 L17.244898,174.244898 L12.4693878,174.244898 L12.4693878,179.020408 Z M27.5306122,169.704826 C27.5306122,169.633647 27.5088606,169.577069 27.4671699,169.533266 C27.4236665,169.491289 27.3674747,169.469388 27.2967817,169.469388 L23.5373667,169.469388 L23.5373667,174.431834 L22.1126317,174.431834 L22.1126317,169.469388 L12.7032183,169.469388 C12.6325253,169.469388 12.5763335,169.491289 12.5328301,169.533266 C12.4911394,169.577069 12.4693878,169.633647 12.4693878,169.704826 L12.4693878,172.783769 L18.4819141,172.783769 L18.5453565,173.404303 C18.5598576,173.418903 18.5652956,173.444455 18.5652956,173.479132 L18.5652956,173.597763 C18.6087989,174.081415 18.5906725,174.607043 18.512729,175.169174 C18.4347855,175.73313 18.2825237,176.29161 18.0559438,176.848266 C17.6172849,177.875797 16.937545,178.695267 16.0167239,179.3085 C15.0959029,179.921734 13.9140617,180.263027 12.4693878,180.334206 L12.4693878,183.927827 C12.4693878,183.984406 12.4911394,184.037333 12.5328301,184.088436 C12.5763335,184.137714 12.6325253,184.163265 12.7032183,184.163265 L20.4776306,184.163265 L20.4776306,178.003554 L25.1723678,178.003554 L25.1723678,184.163265 L27.2967817,184.163265 C27.3674747,184.163265 27.4236665,184.137714 27.4671699,184.088436 C27.5088606,184.037333 27.5306122,183.984406 27.5306122,183.927827 L27.5306122,169.704826 Z M27.3346493,168 C27.7901609,168 28.181901,168.16128 28.5080474,168.48384 C28.8360158,168.804567 29,169.202268 29,169.675111 L29,183.957542 C29,184.415723 28.8360158,184.809759 28.5080474,185.137817 C28.181901,185.467708 27.7901609,185.632653 27.3346493,185.632653 L12.6653507,185.632653 C12.1952627,185.632653 11.7998785,185.467708 11.4810203,185.137817 C11.1603401,184.809759 11,184.415723 11,183.957542 L11,169.675111 C11,169.202268 11.1603401,168.804567 11.4810203,168.48384 C11.7998785,168.16128 12.1952627,168 12.6653507,168 L27.3346493,168 Z" id="Fill-1"></path>
            </g>
        </g>
    </g>
</svg>