<?xml version="1.0" encoding="UTF-8"?>
<svg width="18px" height="18px" viewBox="0 0 18 18" version="1.1" xmlns="http://www.w3.org/2000/svg" xmlns:xlink="http://www.w3.org/1999/xlink">
    <title>Tools / Instruments / tools / 20 Copy</title>
    <g id="Page-1" stroke="none" stroke-width="1" fill="none" fill-rule="evenodd">
        <g id="Website---Home-Hover-Menu" transform="translate(-866.000000, -267.000000)" fill="#8E8E8E">
            <g id="Group-3" transform="translate(642.000000, 223.000000)">
                <g id="Tools-/-Instruments-/-tools-/-20-Copy" transform="translate(223.000000, 43.000000)">
                    <path d="M7.5625,1.24996452 C6.36388754,1.24592101 5.1904195,1.59361524 4.1875,2.25 L8.1875,6.25 C8.45662625,6.47962231 8.62166024,6.80816435 8.64519287,7.16115381 C8.6687255,7.51414326 8.54876376,7.86168503 8.3125,8.125 C8.04918503,8.36126376 7.70164326,8.4812255 7.34865381,8.45769287 C6.99566435,8.43416024 6.66712231,8.26912625 6.4375,8 L2.3125,4 C1.59930817,5.0494594 1.22818103,6.29382686 1.25,7.5625 C1.26370333,11.0431056 4.08189442,13.8612967 7.5625,13.875 C8.10973143,13.877994 8.65533021,13.8150403 9.1875,13.6875 L13.375,17.875 C14.6003818,19.1003818 16.5871182,19.1003818 17.8125,17.875 C19.0378818,16.6496182 19.0378818,14.6628818 17.8125,13.4375 L13.625,9.25 C13.7525403,8.71783021 13.815494,8.17223143 13.8125,7.625 C13.8460898,5.94584614 13.2024682,4.3238316 12.0267054,3.12455356 C10.8509426,1.92527551 9.24198976,1.24966407 7.5625,1.24996452 Z M12.5625,7.5625 C12.5615831,8.00660818 12.49847,8.4483994 12.375,8.875 L12.1875,9.5625 L12.6875,10.0625 L16.875,14.25 C17.2354393,14.5912342 17.4389782,15.0661583 17.4375,15.5625 C17.4517411,16.0613566 17.2460625,16.5412735 16.875,16.875 C16.5329038,17.234201 16.0585394,17.4375 15.5625,17.4375 C15.0664606,17.4375 14.5920962,17.234201 14.25,16.875 L10.0625,12.6875 L9.5625,12.1875 L8.875,12.375 C8.4483994,12.49847 8.00660818,12.5615831 7.5625,12.5625 C6.23442056,12.5588113 4.95872098,12.0440553 4,11.125 C3.01956267,10.2024605 2.47473437,8.90849334 2.5,7.5625 C2.50086195,7.09785319 2.563922,6.6354128 2.6875,6.1875 L5.4375,8.9375 C5.90689457,9.44829438 6.56173832,9.74921213 7.25505629,9.77271443 C7.94837426,9.79621673 8.62209257,9.54033499 9.125,9.0625 C9.60283499,8.55959257 9.85871673,7.88587426 9.83521443,7.19255629 C9.81171213,6.49923832 9.51079438,5.84439457 9,5.375 L6.25,2.625 C6.65421524,2.49716026 7.0760662,2.43388261 7.5,2.43735324 C8.82807944,2.4411887 10.103779,2.95594467 11.0625,3.875 C12.0221044,4.86292295 12.5599989,6.18524691 12.5625,7.5625 Z" id="Fill"></path>
                </g>
            </g>
        </g>
    </g>
</svg>