<svg width="50" height="50" viewBox="0 0 50 50" fill="none" xmlns="http://www.w3.org/2000/svg">
<path fill-rule="evenodd" clip-rule="evenodd" d="M40.625 21.875H37.5V25H40.625C43.2127 25.0028 45.3097 27.0998 45.3125 29.6875V35.9375H48.4375V29.6875C48.4325 25.3748 44.9377 21.88 40.625 21.875ZM29.6875 10.9375C29.6875 6.62278 33.1853 3.125 37.5 3.125C39.572 3.125 41.5591 3.9481 43.0243 5.41323C44.4894 6.87836 45.3125 8.8655 45.3125 10.9375C45.3125 15.2522 41.8147 18.75 37.5 18.75C33.1853 18.75 29.6875 15.2522 29.6875 10.9375ZM42.1875 10.9375C42.1875 8.34867 40.0888 6.25 37.5 6.25C34.9112 6.25 32.8125 8.34867 32.8125 10.9375C32.8125 13.5263 34.9112 15.625 37.5 15.625C40.0888 15.625 42.1875 13.5263 42.1875 10.9375ZM35.9375 46.875H32.8125V43.75C32.8097 41.1623 30.7127 39.0653 28.125 39.0625H21.875C19.2873 39.0653 17.1903 41.1623 17.1875 43.75V46.875H14.0625V43.75C14.0676 39.4374 17.5624 35.9426 21.875 35.9375H28.125C32.4376 35.9426 35.9324 39.4374 35.9375 43.75V46.875ZM17.1875 25C17.1875 20.6853 20.6853 17.1875 25 17.1875C27.072 17.1875 29.0591 18.0106 30.5243 19.4757C31.9894 20.9409 32.8125 22.928 32.8125 25C32.8125 29.3147 29.3147 32.8125 25 32.8125C20.6853 32.8125 17.1875 29.3147 17.1875 25ZM29.6875 25C29.6875 22.4112 27.5888 20.3125 25 20.3125C22.4112 20.3125 20.3125 22.4112 20.3125 25C20.3125 27.5888 22.4112 29.6875 25 29.6875C27.5888 29.6875 29.6875 27.5888 29.6875 25ZM12.5 21.875H9.375C5.06238 21.8801 1.56758 25.3749 1.5625 29.6875V35.9375H4.6875V29.6875C4.69034 27.0998 6.78734 25.0028 9.375 25H12.5V21.875ZM4.6875 10.9375C4.6875 6.62278 8.18528 3.125 12.5 3.125C14.572 3.125 16.5591 3.9481 18.0243 5.41323C19.4894 6.87836 20.3125 8.8655 20.3125 10.9375C20.3125 15.2522 16.8147 18.75 12.5 18.75C8.18528 18.75 4.6875 15.2522 4.6875 10.9375ZM17.1875 10.9375C17.1875 8.34867 15.0888 6.25 12.5 6.25C9.91117 6.25 7.8125 8.34867 7.8125 10.9375C7.8125 13.5263 9.91117 15.625 12.5 15.625C15.0888 15.625 17.1875 13.5263 17.1875 10.9375Z" fill="black"/>
</svg>
