<?xml version="1.0" encoding="utf-8"?>
<!-- Generator: Adobe Illustrator 25.4.1, SVG Export Plug-In . SVG Version: 6.00 Build 0)  -->
<svg version="1.1" id="icon" xmlns="http://www.w3.org/2000/svg" xmlns:xlink="http://www.w3.org/1999/xlink" x="0px" y="0px"
	 viewBox="0 0 32 32" style="enable-background:new 0 0 32 32;" xml:space="preserve">
<style type="text/css">
	.st0{fill:none;}
</style>
<rect id="_Transparent_Rectangle_" class="st0" width="32" height="32"/>
<g>
	<path fill="#ffcc32" d="M26.4,20.4c-0.1,1.7-0.5,3.2-1.7,4.4c-1.2,1.2-2.7,1.6-4.4,1.7c-1.7,0.1-6.9,0.1-8.7,0C10,26.4,8.5,26,7.3,24.8
		c-1.2-1.2-1.6-2.7-1.7-4.4c-0.1-1.7-0.1-6.9,0-8.7C5.7,10.1,6,8.6,7.3,7.3s2.7-1.6,4.4-1.7c1.7-0.1,6.9-0.1,8.7,0
		c1.7,0.1,3.2,0.5,4.4,1.7c1.2,1.2,1.6,2.7,1.7,4.4C26.5,13.5,26.5,18.7,26.4,20.4z M24.6,16.1c0-1.5,0.1-4.8-0.4-6.2
		c-0.4-0.9-1.1-1.6-2-2c-1.4-0.5-4.7-0.4-6.2-0.4s-4.8-0.1-6.2,0.4c-0.9,0.4-1.6,1.1-2,2c-0.5,1.4-0.4,4.7-0.4,6.2
		c0,1.5-0.1,4.8,0.4,6.2c0.4,0.9,1.1,1.6,2,2c1.4,0.5,4.7,0.4,6.2,0.4s4.8,0.1,6.2-0.4c0.9-0.4,1.6-1.1,2-2
		C24.7,20.9,24.6,17.6,24.6,16.1z M21.4,16.1c0,3-2.4,5.4-5.4,5.4s-5.4-2.4-5.4-5.4c0-3,2.4-5.4,5.4-5.4S21.4,13.1,21.4,16.1z
		 M19.5,16.1c0-1.9-1.6-3.5-3.5-3.5s-3.5,1.6-3.5,3.5c0,1.9,1.6,3.5,3.5,3.5S19.5,18,19.5,16.1z M21.6,11.7c-0.7,0-1.3-0.6-1.3-1.3
		s0.6-1.3,1.3-1.3c0.7,0,1.3,0.6,1.3,1.3C22.9,11.2,22.3,11.7,21.6,11.7z"/>
</g>
</svg>
