<?xml version="1.0" encoding="UTF-8"?>
<svg width="18px" height="18px" viewBox="0 0 18 18" version="1.1" xmlns="http://www.w3.org/2000/svg" xmlns:xlink="http://www.w3.org/1999/xlink">
    <title>Organization / File / category / 20</title>
    <g id="Page-1" stroke="none" stroke-width="1" fill="none" fill-rule="evenodd">
        <g id="Website---Home-Hover-Menu" transform="translate(-1160.000000, -351.000000)" fill="#8E8E8E">
            <g id="Group-5" transform="translate(1149.000000, 223.000000)">
                <g id="Organization-/-File-/-category-/-20" transform="translate(10.000000, 127.000000)">
                    <path d="M16.875,13.838375 L16.875,11.25 C16.875,10.5596441 16.3153559,10 15.625,10 L10.625,10 L10.625,7.5 L11.875,7.5 C12.5650275,7.49920783 13.1242078,6.94002755 13.125,6.25 L13.125,2.5 C13.1242078,1.80997245 12.5650275,1.25079217 11.875,1.25 L8.125,1.25 C7.43492967,1.25068904 6.87568904,1.80992967 6.875,2.5 L6.875,6.25 C6.87568904,6.94007033 7.43492967,7.49931096 8.125,7.5 L9.375,7.5 L9.375,10 L4.375,10 C3.68464406,10 3.125,10.5596441 3.125,11.25 L3.125,13.8388125 C1.9060583,14.1535419 1.11129674,15.3255542 1.26992576,16.5744378 C1.42855478,17.8233214 2.49108242,18.7594271 3.75,18.7594271 C5.00891758,18.7594271 6.07144522,17.8233214 6.23007424,16.5744378 C6.38870326,15.3255542 5.5939417,14.1535419 4.375,13.8388125 L4.375,11.25 L9.375,11.25 L9.375,13.83875 C8.1560583,14.1534794 7.36129674,15.3254917 7.51992576,16.5743753 C7.67855478,17.8232589 8.74108242,18.7594271 10,18.7594271 C11.2589176,18.7594271 12.3214452,17.8232589 12.4800742,16.5743753 C12.6387033,15.3254917 11.8439417,14.1534794 10.625,13.83875 L10.625,11.25 L15.625,11.25 L15.625,13.838375 C14.4060583,14.1531044 13.6112967,15.3251167 13.7699258,16.5740003 C13.9285548,17.8228839 14.9910824,18.7589896 16.25,18.7589896 C17.5089176,18.7589896 18.5714452,17.8228839 18.7300742,16.5740003 C18.8887033,15.3251167 18.0939417,14.1531044 16.875,13.838375 Z M8.125,2.5 L11.875,2.5 L11.875625,6.25 L8.125,6.25 L8.125,2.5 Z M5,16.25 C5,16.9403559 4.44035594,17.5 3.75,17.5 C3.05964406,17.5 2.5,16.9403559 2.5,16.25 C2.5,15.5596441 3.05964406,15 3.75,15 C4.44002755,15.0007922 4.99920783,15.5599725 5,16.25 Z M11.25,16.25 C11.25,16.9403559 10.6903559,17.5 10,17.5 C9.30964406,17.5 8.75,16.9403559 8.75,16.25 C8.75,15.5596441 9.30964406,15 10,15 C10.6899705,15.0009296 11.2490704,15.5600295 11.25,16.25 Z M16.25,17.5 C15.5596441,17.5 15,16.9403559 15,16.25 C15,15.5596441 15.5596441,15 16.25,15 C16.9403559,15 17.5,15.5596441 17.5,16.25 C17.4992078,16.9400275 16.9400275,17.4992078 16.25,17.5 Z" id="Fill"></path>
                </g>
            </g>
        </g>
    </g>
</svg>