<?xml version="1.0" encoding="UTF-8"?>
<svg width="16px" height="16px" viewBox="0 0 16 16" version="1.1" xmlns="http://www.w3.org/2000/svg" xmlns:xlink="http://www.w3.org/1999/xlink">
    <title>Actions / Formatting / image / 16</title>
    <g id="Page-1" stroke="none" stroke-width="1" fill="none" fill-rule="evenodd">
        <g id="Website---Home-Hover-Menu" transform="translate(-654.000000, -352.000000)" fill="#8E8E8E">
            <g id="Group-3" transform="translate(642.000000, 223.000000)">
                <g id="Actions-/-Formatting-/-image-/-16" transform="translate(10.000000, 127.000000)">
                    <path d="M11.875,8.75 C12.9105339,8.75 13.75,7.91053391 13.75,6.875 C13.75,5.83946609 12.9105339,5 11.875,5 C10.8394661,5 10,5.83946609 10,6.875 C10,7.91053391 10.8394661,8.75 11.875,8.75 L11.875,8.75 Z M11.875,6.25 C12.220178,6.25 12.5,6.52982203 12.5,6.875 C12.5,7.22017797 12.220178,7.5 11.875,7.5 C11.529822,7.5 11.25,7.22017797 11.25,6.875 C11.25,6.52982203 11.529822,6.25 11.875,6.25 Z M16.25,2.5 L3.75,2.5 C3.05964406,2.5 2.5,3.05964406 2.5,3.75 L2.5,16.25 C2.5,16.9403559 3.05964406,17.5 3.75,17.5 L16.25,17.5 C16.9403559,17.5 17.5,16.9403559 17.5,16.25 L17.5,3.75 C17.5,3.05964406 16.9403559,2.5 16.25,2.5 Z M16.25,16.25 L3.75,16.25 L3.75,12.5 L6.875,9.375 L10.36875,12.86875 C10.8562968,13.3534045 11.6437032,13.3534045 12.13125,12.86875 L13.125,11.875 L16.25,15 L16.25,16.25 Z M16.25,13.23125 L14.00625,10.9875 C13.5187032,10.5028455 12.7312968,10.5028455 12.24375,10.9875 L11.25,11.98125 L7.75625,8.4875 C7.26870318,8.00284551 6.48129682,8.00284551 5.99375,8.4875 L3.75,10.73125 L3.75,3.75 L16.25,3.75 L16.25,13.23125 Z" id="Fill"></path>
                </g>
            </g>
        </g>
    </g>
</svg>