<?xml version="1.0" encoding="UTF-8"?>
<svg width="18px" height="17px" viewBox="0 0 18 17" version="1.1" xmlns="http://www.w3.org/2000/svg" xmlns:xlink="http://www.w3.org/1999/xlink">
    <title>Organization / Data / text-mining / 20 Copy 2</title>
    <g id="Page-1" stroke="none" stroke-width="1" fill="none" fill-rule="evenodd">
        <g id="Website---Home-Hover-Menu" transform="translate(-358.000000, -268.000000)" fill="#8E8E8E">
            <g id="Group-2" transform="translate(135.000000, 183.000000)">
                <g id="Organization-/-Data-/-text-mining-/-20-Copy-2" transform="translate(222.000000, 83.000000)">
                    <path d="M11.25,17.5 L16.25,17.5 L16.25,18.75 L11.25,18.75 L11.25,17.5 Z M11.25,15 L18.75,15 L18.75,16.25 L11.25,16.25 L11.25,15 Z M11.25,12.5 L18.75,12.5 L18.75,13.75 L11.25,13.75 L11.25,12.5 Z M10.000625,16.545625 L10,16.545625 L2.6775,8.096875 L5.9375,3.75 L14.0625,3.75 L17.3225,8.096875 L15.2975,10.4325 L16.243125,11.25125 L18.9275,8.153125 L14.6875,2.5 L5.3125,2.5 L1.0725,8.153125 L9.055,17.36375 L10.000625,16.545625 L10.000625,16.545625 Z" id="Fill"></path>
                </g>
            </g>
        </g>
    </g>
</svg>