<?xml version="1.0" encoding="UTF-8"?>
<svg width="14px" height="18px" viewBox="0 0 14 18" version="1.1" xmlns="http://www.w3.org/2000/svg" xmlns:xlink="http://www.w3.org/1999/xlink">
    <title>Enterprise / Commerce / receipt / 20 Copy 2</title>
    <g id="Page-1" stroke="none" stroke-width="1" fill="none" fill-rule="evenodd">
        <g id="Website---Home-Hover-Menu" transform="translate(-868.000000, -309.000000)" fill="#8E8E8E">
            <g id="Group-3" transform="translate(642.000000, 223.000000)">
                <g id="Enterprise-/-Commerce-/-receipt-/-20-Copy-2" transform="translate(223.000000, 85.000000)">
                    <path d="M13.125,10 L14.375,10 L14.375,11.25 L13.125,11.25 L13.125,10 Z M5.625,10 L10.625,10 L10.625,11.25 L5.625,11.25 L5.625,10 Z M13.125,7.5 L14.375,7.5 L14.375,8.75 L13.125,8.75 L13.125,7.5 Z M5.625,7.5 L10.625,7.5 L10.625,8.75 L5.625,8.75 L5.625,7.5 Z M5.625,5 L14.375,5 L14.375,6.25 L5.625,6.25 L5.625,5 Z M15.625,1.25 L4.375,1.25 C3.68492967,1.25068904 3.12568904,1.80992967 3.125,2.5 L3.125,18.125 C3.125,18.470178 3.40482203,18.75 3.75,18.75 L4.375,18.75 C4.57175353,18.75 4.75705035,18.6574797 4.875,18.5 L6.25,16.666875 L7.625,18.5 C7.74790813,18.6496257 7.93136568,18.7363438 8.125,18.7363438 C8.31863432,18.7363438 8.50209187,18.6496257 8.625,18.5 L10,16.666875 L11.375,18.5 C11.4979081,18.6496257 11.6813657,18.7363438 11.875,18.7363438 C12.0686343,18.7363438 12.2520919,18.6496257 12.375,18.5 L13.75,16.666875 L15.125,18.5 C15.2429886,18.657433 15.4282604,18.75 15.625,18.75 L16.25,18.75 C16.595178,18.75 16.875,18.470178 16.875,18.125 L16.875,2.5 C16.8742078,1.80997245 16.3150275,1.25079217 15.625,1.25 Z M15.625,17.083125 L14.25,15.25 C14.1270919,15.1003743 13.9436343,15.0136562 13.75,15.0136562 C13.5563657,15.0136562 13.3729081,15.1003743 13.25,15.25 L11.875,17.083125 L10.5,15.25 C10.3770919,15.1003743 10.1936343,15.0136562 10,15.0136562 C9.80636568,15.0136562 9.62290813,15.1003743 9.5,15.25 L8.125,17.083125 L6.75,15.25 C6.62709187,15.1003743 6.44363432,15.0136562 6.25,15.0136562 C6.05636568,15.0136562 5.87290813,15.1003743 5.75,15.25 L4.375,17.083125 L4.375,2.5 L15.625,2.5 L15.625,17.083125 Z" id="Fill"></path>
                </g>
            </g>
        </g>
    </g>
</svg>