<?xml version="1.0" encoding="UTF-8"?>
<svg width="17px" height="18px" viewBox="0 0 17 18" version="1.1" xmlns="http://www.w3.org/2000/svg" xmlns:xlink="http://www.w3.org/1999/xlink">
    <title>Organization / Data / data--1 / 20</title>
    <g id="Page-1" stroke="none" stroke-width="1" fill="none" fill-rule="evenodd">
        <g id="Website---Home-Hover-Menu" transform="translate(-358.000000, -311.000000)" fill="#8E8E8E">
            <g id="Group-2" transform="translate(135.000000, 183.000000)">
                <g id="Organization-/-Data-/-data--1-/-20" transform="translate(221.894260, 127.000000)">
                    <path d="M9.375,3.75 L17.5,3.75 L17.5,5 L9.375,5 L9.375,3.75 Z M9.375,15 L17.5,15 L17.5,16.25 L9.375,16.25 L9.375,15 Z M2.5,9.375 L10.625,9.375 L10.625,10.625 L2.5,10.625 L2.5,9.375 Z M4.375,6.875 C2.99428813,6.875 1.875,5.75571187 1.875,4.375 C1.875,2.99428813 2.99428813,1.875 4.375,1.875 C5.75571187,1.875 6.875,2.99428813 6.875,4.375 C6.875,5.03804122 6.6116079,5.67392601 6.14276695,6.14276695 C5.67392601,6.6116079 5.03804122,6.875 4.375,6.875 Z M4.375,3.125 C3.68464406,3.125 3.125,3.68464406 3.125,4.375 C3.125,5.06535594 3.68464406,5.625 4.375,5.625 C5.06535594,5.625 5.625,5.06535594 5.625,4.375 C5.625,4.04347939 5.49330395,3.725537 5.25888348,3.49111652 C5.024463,3.25669605 4.70652061,3.125 4.375,3.125 Z M4.375,18.125 C2.99428813,18.125 1.875,17.0057119 1.875,15.625 C1.875,14.2442881 2.99428813,13.125 4.375,13.125 C5.75571187,13.125 6.875,14.2442881 6.875,15.625 C6.875,17.0057119 5.75571187,18.125 4.375,18.125 Z M4.375,14.375 C3.68464406,14.375 3.125,14.9346441 3.125,15.625 C3.125,16.3153559 3.68464406,16.875 4.375,16.875 C5.06535594,16.875 5.625,16.3153559 5.625,15.625 C5.625,14.9346441 5.06535594,14.375 4.375,14.375 Z M15.625,12.5 C14.2442881,12.5 13.125,11.3807119 13.125,10 C13.125,8.61928813 14.2442881,7.5 15.625,7.5 C17.0057119,7.5 18.125,8.61928813 18.125,10 C18.125,10.6630412 17.8616079,11.298926 17.392767,11.767767 C16.923926,12.2366079 16.2880412,12.5 15.625,12.5 Z M15.625,8.75 C14.9346441,8.75 14.375,9.30964406 14.375,10 C14.375,10.6903559 14.9346441,11.25 15.625,11.25 C16.3153559,11.25 16.875,10.6903559 16.875,10 C16.875,9.30964406 16.3153559,8.75 15.625,8.75 Z" id="Fill"></path>
                </g>
            </g>
        </g>
    </g>
</svg>