<?xml version="1.0" encoding="UTF-8"?>
<svg width="16px" height="16px" viewBox="0 0 16 16" version="1.1" xmlns="http://www.w3.org/2000/svg" xmlns:xlink="http://www.w3.org/1999/xlink">
    <title>Enterprise / Health / health-cross / 20 Copy 2</title>
    <g id="Page-1" stroke="none" stroke-width="1" fill="none" fill-rule="evenodd">
        <g id="Website---Home-Hover-Menu" transform="translate(-1161.000000, -269.000000)" fill="#8E8E8E">
            <g id="Group-5" transform="translate(1149.000000, 223.000000)">
                <g id="Enterprise-/-Health-/-health-cross-/-20-Copy-2" transform="translate(10.431906, 43.862069)">
                    <path d="M11.875,17.5 L8.125,17.5 C7.43497245,17.4992078 6.87579217,16.9400275 6.875,16.25 L6.875,13.125 L3.75,13.125 C3.05997245,13.1242078 2.50079217,12.5650275 2.5,11.875 L2.5,8.125 C2.50068904,7.43492967 3.05992967,6.87568904 3.75,6.875 L6.875,6.875 L6.875,3.75 C6.87568904,3.05992967 7.43492967,2.50068904 8.125,2.5 L11.875,2.5 C12.5650275,2.50079217 13.1242078,3.05997245 13.125,3.75 L13.125,6.875 L16.25,6.875 C16.9400275,6.87579217 17.4992078,7.43497245 17.5,8.125 L17.5,11.875 C17.4990704,12.5649705 16.9399705,13.1240704 16.25,13.125 L13.125,13.125 L13.125,16.25 C13.1240704,16.9399705 12.5649705,17.4990704 11.875,17.5 Z M3.75,8.125 L3.75,11.875 L8.125,11.875 L8.125,16.25 L11.875,16.25 L11.875,11.875 L16.25,11.875 L16.25,8.125 L11.875,8.125 L11.875,3.75 L8.125,3.75 L8.125,8.125 L3.75,8.125 Z" id="Fill"></path>
                </g>
            </g>
        </g>
    </g>
</svg>