<svg xmlns="http://www.w3.org/2000/svg" width="40" height="40" viewBox="0 0 40 40"><path d="M30,35H5V32.5H16.25V11.02A3.792,3.792,0,0,1,14.558,9.8L8.012,11.981l4.356,8.71a1.258,1.258,0,0,1,.131.56,6.25,6.25,0,1,1-12.5,0,1.258,1.258,0,0,1,.131-.56l5-10a1.256,1.256,0,0,1,.724-.626l7.9-2.633A3.764,3.764,0,0,1,16.25,3.98V0h2.5V3.98A3.782,3.782,0,0,1,20.441,5.2l7.913-2.637a1.248,1.248,0,0,1,1.514.626l5,10a1.252,1.252,0,0,1,.131.56,6.25,6.25,0,0,1-12.5,0,1.252,1.252,0,0,1,.131-.56l3.65-7.3L21.244,7.569a3.761,3.761,0,0,1-2.493,3.451V32.5H30V35ZM2.731,22.5a3.727,3.727,0,0,0,7.038,0ZM6.25,14.045,3.272,20H9.227L6.25,14.045ZM25.231,15a3.727,3.727,0,0,0,7.038,0ZM28.75,6.545,25.772,12.5h5.954L28.75,6.545ZM17.5,6.25A1.25,1.25,0,1,0,18.751,7.5,1.252,1.252,0,0,0,17.5,6.25Z" transform="translate(2.5 2.5)"/></svg>