<?xml version="1.0" encoding="UTF-8"?>
<svg width="18px" height="18px" viewBox="0 0 18 18" version="1.1" xmlns="http://www.w3.org/2000/svg" xmlns:xlink="http://www.w3.org/1999/xlink">
    <title>Organization / Status / checkmark--outline / 20 Copy 6</title>
    <g id="Page-1" stroke="none" stroke-width="1" fill="none" fill-rule="evenodd">
        <g id="Website---Home-Hover-Menu" transform="translate(-146.000000, -267.000000)" fill="#8E8E8E">
            <g id="Group-2" transform="translate(135.000000, 183.000000)">
                <g id="Organization-/-Status-/-checkmark--outline-/-20-Copy-6" transform="translate(10.000000, 83.000000)">
                    <path d="M8.75,13.38375 L5.625,10.258125 L6.508125,9.375 L8.75,11.61625 L13.490625,6.875 L14.375,7.759375 L8.75,13.38375 L8.75,13.38375 Z M10,1.25 C5.16750844,1.25 1.25,5.16750844 1.25,10 C1.25,14.8324916 5.16750844,18.75 10,18.75 C14.8324916,18.75 18.75,14.8324916 18.75,10 C18.75,7.67935571 17.8281276,5.45375898 16.1871843,3.81281566 C14.546241,2.17187235 12.3206443,1.25 10,1.25 Z M10,17.5 C5.85786438,17.5 2.5,14.1421356 2.5,10 C2.5,5.85786438 5.85786438,2.5 10,2.5 C14.1421356,2.5 17.5,5.85786438 17.5,10 C17.5,11.9891237 16.7098237,13.896778 15.3033009,15.3033009 C13.896778,16.7098237 11.9891237,17.5 10,17.5 Z" id="Fill"></path>
                </g>
            </g>
        </g>
    </g>
</svg>