<?xml version="1.0" encoding="UTF-8"?>
<svg width="19px" height="18px" viewBox="0 0 19 18" version="1.1" xmlns="http://www.w3.org/2000/svg" xmlns:xlink="http://www.w3.org/1999/xlink">
    <title>Planning / Time / time / 16</title>
    <g id="Page-1" stroke="none" stroke-width="1" fill="none" fill-rule="evenodd">
        <g id="Website---Home-Hover-Menu" transform="translate(-653.000000, -309.000000)" fill="#8E8E8E">
            <g id="Group-3" transform="translate(642.000000, 223.000000)">
                <g id="Planning-/-Time-/-time-/-16" transform="translate(10.705203, 85.000000)">
                    <path d="M10,18.75 C5.16750844,18.75 1.25,14.8324916 1.25,10 C1.25,5.16750844 5.16750844,1.25 10,1.25 C14.8324916,1.25 18.75,5.16750844 18.75,10 C18.75,12.3206443 17.8281276,14.546241 16.1871843,16.1871843 C14.546241,17.8281276 12.3206443,18.75 10,18.75 Z M10,2.5 C5.85786438,2.5 2.5,5.85786438 2.5,10 C2.5,14.1421356 5.85786438,17.5 10,17.5 C14.1421356,17.5 17.5,14.1421356 17.5,10 C17.5,5.85786438 14.1421356,2.5 10,2.5 Z M12.86875,13.75 L9.375,10.25625 L9.375,4.375 L10.625,4.375 L10.625,9.7375 L13.75,12.86875 L12.86875,13.75 L12.86875,13.75 Z" id="Fill"></path>
                </g>
            </g>
        </g>
    </g>
</svg>