<svg width="60" height="60" viewBox="0 0 60 60" fill="none" xmlns="http://www.w3.org/2000/svg">
<path fill-rule="evenodd" clip-rule="evenodd" d="M55.1528 40.6246L43.275 28.7448L55.1507 16.8685C56.6157 15.405 56.6171 13.0311 55.1539 11.5659L55.1507 11.5621L48.4382 4.84961C46.9745 3.3844 44.6002 3.38314 43.135 4.8468L43.1318 4.84961L31.2563 16.724L19.3785 4.84492C17.9123 3.38494 15.5416 3.38536 14.0758 4.84586L4.84766 14.0744C3.38411 15.5394 3.38411 17.9131 4.84766 19.378L16.7235 31.2552L3.75003 44.2282V56.2501H15.7699L28.743 43.2762L40.6219 55.157C42.0898 56.6145 44.4586 56.6145 45.9265 55.157L55.1528 45.9277C56.616 44.4628 56.616 42.0895 55.1528 40.6246ZM45.775 7.49771L52.5062 14.229L40.6313 26.1045L33.9 19.3732L45.775 7.49771ZM15 52.4937H7.50003V45.7598L19.3671 33.8937L26.2615 40.7896L15 52.4937ZM43.275 52.5065L7.50003 16.7274L16.7286 7.49995L23.8313 14.6015L19.6088 18.825L22.2625 21.4764L26.4825 17.2539L34.2252 24.9965L30 29.2188L32.655 31.8703L36.877 27.6478L44.6207 35.3915L40.3988 39.6121L43.0502 42.2653L47.272 38.0437L52.5045 43.2768L43.275 52.5065Z" fill="black"/>
</svg>
