<?xml version="1.0" encoding="utf-8"?>
<!-- Generator: Adobe Illustrator 25.4.1, SVG Export Plug-In . SVG Version: 6.00 Build 0)  -->
<svg version="1.1" id="icon" xmlns="http://www.w3.org/2000/svg" xmlns:xlink="http://www.w3.org/1999/xlink" x="0px" y="0px"
	 viewBox="0 0 32 32" style="enable-background:new 0 0 32 32;" xml:space="preserve">
<style type="text/css">
	.st0{fill:none;}
</style>
<rect id="_Transparent_Rectangle_" class="st0" width="32" height="32"/>
<g>
	<path fill="#ffcc32" d="M25.5,11.8c0,6.5-4.9,14-14,14c-2.8,0-5.4-0.8-7.6-2.2c0.4,0,0.8,0.1,1.2,0.1c2.3,0,4.4-0.8,6.1-2.1c-2.2,0-4-1.5-4.6-3.4
		c0.3,0,0.6,0.1,0.9,0.1c0.4,0,0.9-0.1,1.3-0.2C6.7,17.6,5,15.6,5,13.2v-0.1c0.7,0.4,1.4,0.6,2.2,0.6C5.9,12.9,5,11.4,5,9.7
		C5,8.8,5.2,8,5.7,7.2c2.4,3,6.1,4.9,10.1,5.1c-0.1-0.4-0.1-0.7-0.1-1.1c0-2.7,2.2-4.9,4.9-4.9c1.4,0,2.7,0.6,3.6,1.6
		c1.1-0.2,2.2-0.6,3.1-1.2c-0.4,1.1-1.1,2.1-2.2,2.7c1-0.1,1.9-0.4,2.8-0.8c-0.7,1-1.5,1.8-2.5,2.5C25.5,11.4,25.5,11.6,25.5,11.8z"
		/>
</g>
</svg>
